# xmcd
#
# Track frame offsets: 
#        150
#        25396
#        48576
#        66338
#        90825
#        107375
#        130990
#        148475
#        177113
#        204720
#        230093
#
# Disc length: 3270 seconds
#
# Revision: 1
# Processed by: cddbd v1.5.2PL0 Copyright (c) Steve Scherf et al.
# Submitted via: ExactAudioCopyFreeDBPlugin 1.0
#
DISCID=9f0cc40b
DTITLE=Harold López-Nussa - El Viaje
DYEAR=2016
DGENRE=Jazz
TTITLE0=Me Voy Pá Cuba
TTITLE1=Africa
TTITLE2=Feria
TTITLE3=Lobo's Cha
TTITLE4=Bacalao Con Pan
TTITLE5=El Viaje
TTITLE6=Mozambique En Mi B
TTITLE7=D' Una Fábula
TTITLE8=Inspiracion En Connecticut
TTITLE9=Oriente
TTITLE10=Improv (Me Voy Pá Cuba)
EXTD=YEAR: 2016
EXTT0=
EXTT1=
EXTT2=
EXTT3=
EXTT4=
EXTT5=
EXTT6=
EXTT7=
EXTT8=
EXTT9=
EXTT10=
PLAYORDER=
